<!--?xml version="1.0" encoding="iso-8859-1"?-->
<!-- Generator: Adobe Illustrator 22.1.0, SVG Export Plug-In . SVG Version: 6.00 Build 0)  -->
<svg version="1.1" id="_x34_" xmlns="http://www.w3.org/2000/svg" xmlns:xlink="http://www.w3.org/1999/xlink" x="0px" y="0px" viewBox="0 0 446.7 512" style="opacity: 1; width: 128px; height: 148px;" xml:space="preserve">
<style type="text/css">
	.st0{fill:#D1BF87;}
	.st1{fill:#FDF7E5;}
	.st2{fill:#F3E29D;}
	.st3{opacity:5.000000e-02;fill:#040000;}
	.st4{opacity:0.2;fill:#FFFFFF;}
	.st5{opacity:0.1;fill:#040000;}
	.st6{opacity:0.2;fill:#040000;}
	.st7{fill:#73604A;}
</style>
<g>
	<path class="st0" d="M435.7,395.4H11c-2,0-3.7-1.6-3.7-3.7V0h432v391.8C439.4,393.8,437.7,395.4,435.7,395.4z" style="fill: rgb(228, 147, 86);"></path>
	<polygon class="st1" points="439.4,70.3 223.4,70.3 7.3,70.3 50.5,35.1 7.3,0 223.4,0 439.4,0 396.2,35.1 	" style="fill: rgb(228, 205, 135);"></polygon>
	<path class="st2" d="M444,512H2.7c-1.5,0-2.7-1.2-2.7-2.7v-439h446.7v439C446.7,510.8,445.5,512,444,512z" style="fill: rgb(216, 149, 58);"></path>
	<path class="st3" d="M22.3,512h402.8c10.9,0,19.8-7.9,21.6-18.3H0.8C2.5,504.1,11.5,512,22.3,512z"></path>
	<path class="st4" d="M417.3,100.4H13.5c-0.3,0-0.5-0.2-0.5-0.5v-8.3c0-0.3,0.2-0.5,0.5-0.5h403.8c0.3,0,0.5,0.2,0.5,0.5v8.3
		C417.8,100.2,417.6,100.4,417.3,100.4z"></path>
	<g>
		<polygon class="st5" points="50.5,70.3 50.5,35.1 7.3,70.3 		"></polygon>
		<polygon class="st5" points="396.2,35.1 396.2,70.3 439.4,70.3 		"></polygon>
	</g>
	<g>
		
			<ellipse transform="matrix(1 -3.917343e-03 3.917343e-03 1 -0.6199 0.4662)" class="st6" cx="118.7" cy="158.5" rx="22.7" ry="22.7"></ellipse>
		<path class="st6" d="M328,135.8c-12.5,0-22.7,10.2-22.7,22.7c0,12.5,10.2,22.7,22.7,22.7c12.5,0,22.7-10.2,22.7-22.7
			C350.7,145.9,340.5,135.8,328,135.8z"></path>
	</g>
	<path class="st7" d="M223.4,312.6c-61.7,0-111.8-69.2-111.8-154.1c0-5.4,4.4-9.8,9.8-9.8s9.8,4.4,9.8,9.8
		c0,74.2,41.4,134.6,92.3,134.6c50.9,0,92.3-60.4,92.3-134.6c0-5.4,4.4-9.8,9.8-9.8s9.8,4.4,9.8,9.8
		C335.2,243.5,285,312.6,223.4,312.6z"></path>
</g>
</svg>
